# xmcd
#
# Track frame offsets:
#	150
#	14190
#	26692
#	39643
#	52735
#	63599
#	73682
#	86596
#	100601
#	111828
#
# Disc length: 1651 seconds
#
# Revision: 1
# Processed by: cddbd v1.5.2PL0 Copyright (c) Steve Scherf et al.
# Submitted via: audiograbber 1.83.01
#
DISCID=8306710a
DTITLE=David Houston - Golden Hymns
DYEAR=1967
DGENRE=Country
TTITLE0=What A Friend We Have In Jesus
TTITLE1=Just A Closer Walk With Thee
TTITLE2=In The Garden
TTITLE3=If I Could Hear My Mother Pray Again
TTITLE4=Where We'll Never Grow Old
TTITLE5=The Church In The Wildwood
TTITLE6=Cabin In The Corner Of Gloryland
TTITLE7=When They Ring Those Golden Bells
TTITLE8=In The Sweet By And By
TTITLE9=The Old Rugged Cross
EXTD=
EXTT0=
EXTT1=
EXTT2=
EXTT3=
EXTT4=
EXTT5=
EXTT6=
EXTT7=
EXTT8=
EXTT9=
PLAYORDER=
